<?xml version="1.0" encoding="UTF-8"?>
<svg width="1000px" height="500px" viewBox="0 0 1000 500" version="1.1" xmlns="http://www.w3.org/2000/svg" xmlns:xlink="http://www.w3.org/1999/xlink">
    <title>logos_kenna-black</title>
    <g id="Logos-1000x500" stroke="none" stroke-width="1" fill="none" fill-rule="evenodd">
        <g id="Logo" fill-rule="nonzero">
            <g id="Group" transform="translate(172.000000, 136.000000)">
                <polygon id="Path" fill="#ff0000" points="0 0 0 228 170.307692 228 170.307692 0"></polygon>
                <path d="M38.8974359,53.5852535 L53.6153846,53.5852535 L53.6153846,174.414747 L38.8974359,174.414747 L38.8974359,189.124424 L68.3333333,189.124424 L68.3333333,38.875576 L38.8974359,38.875576 L38.8974359,53.5852535 Z M98.8205128,113.474654 L112.487179,99.8156682 L112.487179,53.5852535 L127.205128,53.5852535 L127.205128,38.875576 L98.8205128,38.875576 L98.8205128,95.6129032 L80.9487179,113.474654 L99.8717949,131.336406 L99.8717949,189.124424 L129.307692,189.124424 L129.307692,174.414747 L114.589744,174.414747 L114.589744,128.184332 L98.8205128,113.474654 Z M126.153846,114.525346 L139.820513,100.866359 L126.153846,87.2073733 L126.153846,114.525346 Z" id="Shape" fill="#FFFFFF"></path>
                <path d="M362.692308,87.2073733 C343.769231,87.2073733 333.25641,95.6129032 333.25641,114.525346 L333.25641,146.046083 C333.25641,166.009217 343.769231,174.414747 362.692308,174.414747 C378.461538,174.414747 386.871795,168.110599 390.025641,157.603687 C390.025641,156.552995 390.025641,155.502304 390.025641,155.502304 C390.025641,153.400922 387.923077,151.299539 385.820513,151.299539 C383.717949,151.299539 382.666667,152.35023 381.615385,154.451613 C378.461538,162.857143 373.205128,167.059908 361.641026,167.059908 C346.923077,167.059908 340.615385,160.75576 340.615385,144.995392 L340.615385,133.437788 L382.666667,133.437788 C387.923077,133.437788 391.076923,130.285714 391.076923,126.082949 L391.076923,115.576037 C392.128205,95.6129032 382.666667,87.2073733 362.692308,87.2073733 Z M383.717949,122.930876 C383.717949,125.032258 382.666667,126.082949 380.564103,126.082949 L341.666667,126.082949 L341.666667,116.626728 C341.666667,100.866359 349.025641,94.562212 362.692308,94.562212 C376.358974,94.562212 383.717949,100.866359 383.717949,116.626728 L383.717949,122.930876 L383.717949,122.930876 Z M449.948718,87.2073733 C431.025641,87.2073733 420.512821,95.6129032 420.512821,114.525346 L420.512821,169.16129 C420.512821,172.313364 422.615385,173.364055 424.717949,173.364055 C426.820513,173.364055 428.923077,172.313364 428.923077,169.16129 L428.923077,116.626728 C428.923077,100.866359 436.282051,95.6129032 449.948718,95.6129032 C463.615385,95.6129032 470.974359,101.917051 470.974359,116.626728 L470.974359,169.16129 C470.974359,172.313364 473.076923,173.364055 475.179487,173.364055 C477.282051,173.364055 479.384615,172.313364 479.384615,169.16129 L479.384615,114.525346 C479.384615,95.6129032 469.923077,87.2073733 449.948718,87.2073733 Z M540.358974,87.2073733 C521.435897,87.2073733 510.923077,95.6129032 510.923077,114.525346 L510.923077,169.16129 C510.923077,172.313364 513.025641,173.364055 515.128205,173.364055 C517.230769,173.364055 519.333333,172.313364 519.333333,169.16129 L519.333333,116.626728 C519.333333,100.866359 526.692308,95.6129032 540.358974,95.6129032 C554.025641,95.6129032 561.384615,101.917051 561.384615,116.626728 L561.384615,169.16129 C561.384615,172.313364 563.487179,173.364055 565.589744,173.364055 C567.692308,173.364055 569.794872,172.313364 569.794872,169.16129 L569.794872,114.525346 C569.794872,95.6129032 559.282051,87.2073733 540.358974,87.2073733 Z M625.512821,87.2073733 C610.794872,87.2073733 602.384615,93.5115207 599.230769,102.967742 C599.230769,104.018433 599.230769,104.018433 599.230769,105.069124 C599.230769,107.170507 601.333333,109.271889 603.435897,109.271889 C605.538462,109.271889 606.589744,108.221198 607.641026,106.119816 C609.74359,98.764977 616.051282,94.562212 625.512821,94.562212 C639.179487,94.562212 646.538462,100.866359 646.538462,116.626728 L646.538462,126.082949 L619.205128,126.082949 C605.538462,126.082949 597.128205,132.387097 597.128205,146.046083 L597.128205,147.096774 C597.128205,166.009217 607.641026,174.414747 626.564103,174.414747 C645.487179,174.414747 656,166.009217 656,147.096774 L656,115.576037 C654.948718,95.6129032 645.487179,87.2073733 625.512821,87.2073733 Z M646.538462,144.995392 C646.538462,160.75576 639.179487,167.059908 625.512821,167.059908 C611.846154,167.059908 604.487179,160.75576 604.487179,147.096774 C604.487179,137.640553 609.74359,134.488479 619.205128,134.488479 L646.538462,134.488479 L646.538462,144.995392 L646.538462,144.995392 Z M274.384615,126.082949 L309.076923,94.562212 C310.128205,93.5115207 310.128205,92.4608295 310.128205,91.4101382 C310.128205,89.3087558 309.076923,87.2073733 305.923077,87.2073733 C304.871795,87.2073733 302.769231,87.2073733 301.717949,89.3087558 L262.820513,125.032258 L262.820513,58.8387097 C262.820513,55.6866359 260.717949,54.6359447 258.615385,54.6359447 C256.512821,54.6359447 254.410256,55.6866359 254.410256,58.8387097 L254.410256,169.16129 C254.410256,172.313364 256.512821,173.364055 258.615385,173.364055 C260.717949,173.364055 262.820513,172.313364 262.820513,169.16129 L262.820513,125.032258 L303.820513,171.262673 C304.871795,172.313364 305.923077,173.364055 308.025641,173.364055 C310.128205,173.364055 312.230769,171.262673 312.230769,169.16129 C312.230769,168.110599 312.230769,167.059908 311.179487,166.009217 L274.384615,126.082949 Z" id="Shape" fill="#000000"></path>
            </g>
        </g>
    </g>
</svg>
